<svg width="321" height="627" viewBox="0 0 321 627" fill="none" xmlns="http://www.w3.org/2000/svg">
<path d="M162.747 626.061C242.508 626.061 307.168 617.67 307.168 607.32C307.168 596.969 242.508 588.578 162.747 588.578C82.9852 588.578 18.3257 596.969 18.3257 607.32C18.3257 617.67 82.9852 626.061 162.747 626.061Z" fill="#E6E6E6"/>
<path d="M170.713 542.065C170.713 542.065 178.473 568.795 183.647 575.693C188.82 582.591 193.132 593.8 190.545 595.525C187.958 597.249 182.784 617.943 189.682 618.806C196.581 619.668 212.101 596.387 212.964 588.627C213.826 580.866 217.275 553.274 217.275 553.274C217.275 553.274 223.311 529.131 213.826 527.406C204.341 525.682 189.683 524.819 189.683 524.819L170.713 542.065Z" fill="#2F2E41"/>
<path d="M134.498 570.519C134.498 570.519 123.289 599.836 120.702 601.56C118.115 603.285 108.63 618.806 127.6 618.806C146.57 618.806 156.917 613.632 156.917 613.632L162.952 606.734C162.952 606.734 162.952 588.627 161.228 586.04C159.503 583.453 161.228 570.519 161.228 570.519H134.498Z" fill="#2F2E41"/>
<path d="M57.7568 302.357C57.7568 302.357 43.9607 395.481 56.0323 425.66C68.104 455.839 80.1756 464.461 80.1756 464.461L171.575 549.825C171.575 549.825 200.03 535.167 197.443 525.682C197.443 525.682 191.407 522.233 190.545 519.646C189.682 517.059 178.473 516.197 178.473 516.197C178.473 516.197 173.3 510.161 173.3 506.712C173.3 503.263 128.462 442.043 113.804 437.731C113.804 437.731 106.043 428.246 106.906 426.522C107.768 424.797 104.319 418.762 104.319 418.762L112.941 385.133L167.264 376.511C167.264 376.511 189.682 297.183 170.713 291.147C151.743 285.111 57.7568 302.357 57.7568 302.357Z" fill="#2F2E41"/>
<path d="M165.539 362.715L167.264 376.511C167.264 376.511 167.264 412.726 165.539 416.175C163.815 419.624 162.952 424.797 165.539 428.246C168.126 431.695 172.437 440.318 170.713 443.767C168.988 447.216 174.162 544.651 167.264 551.549C160.366 558.448 162.953 567.07 163.815 567.932C164.677 568.795 162.953 572.244 162.953 572.244C162.953 572.244 127.6 578.279 130.187 572.244C132.774 566.208 132.773 562.759 134.498 561.034C136.223 559.31 134.498 556.723 134.498 556.723C134.498 556.723 137.085 529.131 134.498 527.406C131.911 525.682 124.151 442.905 124.151 442.043C124.151 441.18 121.564 439.456 121.564 436.007C121.564 432.558 121.564 421.348 117.253 419.624C112.941 417.899 113.804 375.649 113.804 375.649L165.539 362.715Z" fill="#2F2E41"/>
<path d="M104.319 54.8883C104.319 54.8883 107.768 80.7561 118.115 85.9296C128.462 91.1032 135.36 93.69 135.36 93.69L126.738 123.869L123.289 149.737H83.6246L62.0682 132.492L68.9662 104.037L72.4152 98.8635C72.4152 98.8635 76.7265 79.8938 73.2775 73.858C69.8284 67.8222 104.319 54.8883 104.319 54.8883Z" fill="#FFB9B9"/>
<path d="M87.0737 117.833L93.1095 129.043C93.1095 129.043 97.4208 113.522 103.457 110.935C109.492 108.348 124.151 104.037 124.151 100.588C124.151 97.139 123.289 88.5164 126.738 88.5164C130.187 88.5164 163.815 98.8635 168.988 102.313C174.162 105.762 175.024 109.211 175.024 109.211L165.539 208.37C165.539 208.37 179.335 254.932 175.024 273.04C170.713 291.147 167.264 293.734 156.917 296.321C146.57 298.908 152.605 290.285 122.426 298.908C92.2472 307.53 73.2775 304.943 66.3795 304.943C59.4814 304.943 55.1701 308.392 53.4456 309.255C51.721 310.117 52.5833 304.943 58.6191 297.183C64.655 289.423 62.0681 276.489 62.0681 276.489C62.0681 276.489 55.17 254.07 59.4813 245.448C63.7926 236.825 69.8285 225.616 64.6549 222.167C59.4814 218.718 52.5833 192.85 52.5833 192.85L33.6136 125.593L72.4152 98.8635C72.4152 98.8635 70.6907 110.935 76.7265 113.522C82.7623 116.109 87.0737 117.833 87.0737 117.833Z" fill="#575A89"/>
<path d="M38.7872 124.731H33.6136C33.6136 124.731 24.991 139.39 24.991 149.737C24.991 160.084 29.3023 218.717 29.3023 218.717L54.3078 244.585L60.3436 224.753L62.0682 180.778L38.7872 124.731Z" fill="#575A89"/>
<path d="M52.5833 216.131C52.5833 216.131 24.1288 208.37 24.991 220.442C25.8533 232.514 30.1645 247.172 43.9607 250.621C57.7568 254.07 62.0682 235.1 62.0682 235.1C62.0682 235.1 63.7927 217.855 52.5833 216.131Z" fill="#575A89"/>
<path d="M159.503 255.795C159.503 255.795 157.779 295.459 147.432 299.77L172.437 305.806C172.437 305.806 184.509 264.417 182.784 262.693C181.06 260.968 159.503 255.795 159.503 255.795Z" fill="#FFB9B9"/>
<path d="M11.6082 175.058L26.4162 168.589C26.9693 168.348 27.5957 168.336 28.1576 168.556C28.7195 168.776 29.1709 169.211 29.4125 169.764L45.875 207.448C46.1701 208.124 46.1847 208.889 45.9157 209.575C45.6467 210.262 45.1161 210.813 44.4406 211.108L30.5561 217.174C29.8805 217.469 29.1155 217.483 28.4291 217.214C27.7428 216.945 27.1914 216.415 26.8963 215.739L10.4338 178.055C10.3142 177.781 10.2496 177.486 10.2439 177.187C10.2382 176.888 10.2914 176.591 10.4004 176.313C10.5095 176.035 10.6723 175.781 10.8795 175.566C11.0867 175.35 11.3343 175.178 11.6082 175.058V175.058Z" fill="#2F2E41"/>
<path opacity="0.1" d="M11.6082 175.058L26.4162 168.589C26.9693 168.348 27.5957 168.336 28.1576 168.556C28.7195 168.776 29.1709 169.211 29.4125 169.764L45.875 207.448C46.1701 208.124 46.1847 208.889 45.9157 209.575C45.6467 210.262 45.1161 210.813 44.4406 211.108L30.5561 217.174C29.8805 217.469 29.1155 217.483 28.4291 217.214C27.7428 216.945 27.1914 216.415 26.8963 215.739L10.4338 178.055C10.3142 177.781 10.2496 177.486 10.2439 177.187C10.2382 176.888 10.2914 176.591 10.4004 176.313C10.5095 176.035 10.6723 175.781 10.8795 175.566C11.0867 175.35 11.3343 175.178 11.6082 175.058V175.058Z" fill="black"/>
<path d="M12.4484 176.982L25.3586 171.342C25.9116 171.1 26.5381 171.088 27.1 171.309C27.6619 171.529 28.1133 171.963 28.3549 172.516L43.9771 208.278C44.2722 208.953 44.2868 209.718 44.0178 210.404C43.7488 211.091 43.2182 211.642 42.5427 211.937L30.5561 217.174C29.8805 217.469 29.1154 217.483 28.4291 217.214C27.7427 216.945 27.1914 216.415 26.8963 215.739L11.274 179.978C11.0324 179.425 11.0204 178.799 11.2407 178.237C11.4609 177.675 11.8953 177.223 12.4484 176.982V176.982Z" fill="#2F2E41"/>
<path d="M24.3214 192.236C26.4177 191.32 27.3647 188.856 26.4365 186.731C25.5084 184.606 23.0566 183.626 20.9603 184.542C18.8639 185.458 17.9169 187.923 18.845 190.047C19.7732 192.172 22.2251 193.152 24.3214 192.236Z" fill="#F2F2F2"/>
<path opacity="0.1" d="M165.97 120.851L171.575 112.66C171.575 112.66 192.269 144.563 190.545 166.12C188.82 187.676 187.096 188.538 187.096 191.987C187.096 195.436 182.784 195.436 187.096 199.748C191.407 204.059 197.443 210.095 193.994 213.544C190.545 216.993 187.958 216.993 188.82 221.304C189.372 224.436 189.66 227.609 189.682 230.789C189.682 230.789 182.353 245.016 179.766 245.016C177.18 245.016 152.605 267.866 152.605 265.279C152.605 262.693 155.192 244.585 155.192 241.998C155.192 239.412 156.054 230.789 157.779 228.202C159.503 225.616 159.503 226.478 157.779 223.891C156.054 221.304 156.054 223.891 156.054 221.304C156.054 218.717 156.917 215.268 154.33 214.406C151.743 213.544 149.156 214.406 150.881 210.095C152.605 205.784 150.881 202.335 150.019 202.335C149.156 202.335 144.845 201.472 147.432 198.886C150.019 196.299 142.258 146.288 142.258 146.288C142.258 146.288 143.552 133.785 165.97 120.851Z" fill="black"/>
<path d="M161.228 102.313L175.886 109.211C175.886 109.211 196.581 141.114 194.856 162.671C193.132 184.227 191.407 185.089 191.407 188.538C191.407 191.987 187.096 191.987 191.407 196.299C195.718 200.61 201.754 206.646 198.305 210.095C194.856 213.544 192.269 213.544 193.132 217.855C193.683 220.987 193.971 224.16 193.994 227.34C193.994 227.34 186.234 268.729 183.647 268.729C181.06 268.729 156.917 264.417 156.917 261.83C156.917 259.244 159.503 241.136 159.503 238.549C159.503 235.963 160.366 227.34 162.09 224.753C163.815 222.167 163.815 223.029 162.09 220.442C160.366 217.855 160.366 220.442 160.366 217.855C160.366 215.268 161.228 211.819 158.641 210.957C156.054 210.095 153.468 210.957 155.192 206.646C156.917 202.335 155.192 198.886 154.33 198.886C153.468 198.886 149.156 198.023 151.743 195.437C154.33 192.85 146.57 142.839 146.57 142.839C146.57 142.839 138.809 115.246 161.228 102.313Z" fill="#575A89"/>
<path d="M30.389 222.289C29.586 222.502 28.7343 222.431 27.9772 222.089C27.2201 221.748 26.6038 221.156 26.232 220.413C22.2696 212.491 11.5337 189.253 21.542 188.538C30.775 187.879 38.9991 205.883 42.3564 214.387C42.57 214.927 42.6667 215.506 42.64 216.086C42.6132 216.667 42.4637 217.235 42.2014 217.753C41.939 218.271 41.5697 218.728 41.1178 219.093C40.6659 219.458 40.1418 219.723 39.58 219.87L30.389 222.289Z" fill="#FFB9B9"/>
<path d="M80.1756 79.0315C97.7955 79.0315 112.079 64.7478 112.079 47.1279C112.079 29.5081 97.7955 15.2244 80.1756 15.2244C62.5557 15.2244 48.272 29.5081 48.272 47.1279C48.272 64.7478 62.5557 79.0315 80.1756 79.0315Z" fill="#FFB9B9"/>
<path d="M68.4525 28.754C64.4715 30.1275 60.3626 31.0975 56.1877 31.6493C53.0456 32.1395 49.3686 32.3905 47.1602 30.1022C44.993 27.8565 45.3437 24.1105 46.8219 21.3619C48.3001 18.6133 50.6682 16.4585 52.4446 13.8925C55.2385 9.85684 56.8874 4.50666 61.3549 2.47364C63.2064 1.76489 65.171 1.39793 67.1535 1.39054C78.7464 0.651433 90.8132 -0.0144689 101.549 4.4217C105.583 5.95861 109.157 8.50146 111.931 11.8086C113.748 14.2438 115.151 16.9626 116.081 19.8552C118.95 28.3665 119.588 37.4715 117.934 46.2998C116.28 55.1281 112.389 63.3846 106.633 70.2801C102.721 66.7549 104.422 58.6093 99.4716 56.813C97.8474 56.2237 96.0113 56.6338 94.3476 56.1673C89.119 54.7012 89.3816 46.6208 85.0288 43.3741C84.0782 42.8625 83.2363 42.1707 82.5502 41.3372C82.1675 40.5379 82.0012 39.6521 82.0679 38.7683C82.0361 35.7412 83.458 28.052 80.5704 25.9771C77.6311 23.8651 71.2768 27.7341 68.4525 28.754Z" fill="#2F2E41"/>
<path d="M51.0848 551.278C51.0848 551.278 48.7395 500.836 0.6604 506.699Z" fill="#E6E6E6"/>
<path d="M253.811 433.149C253.811 433.149 256.157 382.706 304.236 388.569Z" fill="#E6E6E6"/>
<path d="M252.818 594.077C252.757 593.545 247.046 540.648 270.17 512.654C278.705 502.322 290.14 496.536 304.159 495.458L304.313 497.452C290.858 498.487 279.89 504.029 271.715 513.923C249.132 541.258 254.746 593.328 254.804 593.85L252.818 594.077Z" fill="#E6E6E6"/>
<path d="M51.3042 492.574H49.3042V602.574H51.3042V492.574Z" fill="#E6E6E6"/>
<path d="M253.304 381.574H251.304V602.574H253.304V381.574Z" fill="#E6E6E6"/>
<path d="M51.0849 496.145C60.1519 496.145 67.5021 488.795 67.5021 479.728C67.5021 470.661 60.1519 463.31 51.0849 463.31C42.0179 463.31 34.6676 470.661 34.6676 479.728C34.6676 488.795 42.0179 496.145 51.0849 496.145Z" fill="#151616"/>
<path d="M253.811 382.706C262.878 382.706 270.229 375.356 270.229 366.289C270.229 357.222 262.878 349.872 253.811 349.872C244.744 349.872 237.394 357.222 237.394 366.289C237.394 375.356 244.744 382.706 253.811 382.706Z" fill="#151616"/>
<path d="M304.236 512.872C313.303 512.872 320.653 505.521 320.653 496.454C320.653 487.387 313.303 480.037 304.236 480.037C295.169 480.037 287.819 487.387 287.819 496.454C287.819 505.521 295.169 512.872 304.236 512.872Z" fill="#E6E6E6"/>
</svg>
